<svg width="35" height="61" viewBox="0 0 35 61" fill="none" xmlns="http://www.w3.org/2000/svg">
<path d="M31.3591 15.6131C30.9664 15.6131 30.6466 15.9329 30.6466 16.3256C30.6466 16.7182 30.9664 17.038 31.3591 17.038C31.7518 17.038 32.0716 16.7182 32.0716 16.3256C32.0716 15.9329 31.7518 15.6131 31.3591 15.6131Z" fill="url(#paint0_radial_10_134)"/>
<path d="M24.6694 29.4375C24.6694 29.8302 24.9892 30.15 25.3819 30.15C25.7745 30.15 26.0943 29.8302 26.0943 29.4375C26.0943 29.0448 25.7745 28.725 25.3819 28.725C24.9892 28.725 24.6694 29.0448 24.6694 29.4375Z" fill="url(#paint1_radial_10_134)"/>
<path d="M28.6754 26.7736C28.2828 26.7736 27.963 27.0934 27.963 27.4861C27.963 27.8788 28.2828 28.1986 28.6754 28.1986C29.0681 28.1986 29.3879 27.8788 29.3879 27.4861C29.3879 27.0934 29.0681 26.7736 28.6754 26.7736Z" fill="url(#paint2_radial_10_134)"/>
<path d="M26.0951 24.0709C26.0951 23.6782 25.7753 23.3584 25.3826 23.3584C24.9899 23.3584 24.6701 23.6782 24.6701 24.0709C24.6701 24.4636 24.9899 24.7834 25.3826 24.7834C25.7753 24.7834 26.0951 24.4643 26.0951 24.0709Z" fill="url(#paint3_radial_10_134)"/>
<path d="M9.34005 24.7834C9.73354 24.7834 10.0525 24.4644 10.0525 24.0709C10.0525 23.6774 9.73354 23.3584 9.34005 23.3584C8.94655 23.3584 8.62756 23.6774 8.62756 24.0709C8.62756 24.4644 8.94655 24.7834 9.34005 24.7834Z" fill="url(#paint4_radial_10_134)"/>
<path d="M9.34005 30.15C9.73354 30.15 10.0525 29.831 10.0525 29.4375C10.0525 29.044 9.73354 28.725 9.34005 28.725C8.94655 28.725 8.62756 29.044 8.62756 29.4375C8.62756 29.831 8.94655 30.15 9.34005 30.15Z" fill="url(#paint5_radial_10_134)"/>
<path d="M6.0472 28.1986C6.44069 28.1986 6.75968 27.8796 6.75968 27.4861C6.75968 27.0926 6.44069 26.7736 6.0472 26.7736C5.65371 26.7736 5.33472 27.0926 5.33472 27.4861C5.33472 27.8796 5.65371 28.1986 6.0472 28.1986Z" fill="url(#paint6_radial_10_134)"/>
<path d="M3.36354 17.038C3.75704 17.038 4.07603 16.719 4.07603 16.3256C4.07603 15.9321 3.75704 15.6131 3.36354 15.6131C2.97005 15.6131 2.65106 15.9321 2.65106 16.3256C2.65106 16.719 2.97005 17.038 3.36354 17.038Z" fill="url(#paint7_radial_10_134)"/>
<path d="M17.3563 7.62939e-06C7.75093 7.62939e-06 -6.10352e-05 7.78708 -6.10352e-05 17.3925C-6.10352e-05 24.3454 4.06894 30.3438 10.0122 33.128V37.3286C10.0122 38.3389 10.7424 39.0924 11.7527 39.0924H13.4784V24.7367L8.39053 19.6898C8.23983 19.7493 8.06224 19.7825 7.89102 19.7825C7.16156 19.7825 6.56157 19.1889 6.56157 18.4602C6.56157 17.7307 7.15094 17.1378 7.8804 17.1378C8.60987 17.1378 9.20136 17.7314 9.20136 18.4602C9.20136 18.5401 9.22188 18.6186 9.20844 18.6951L13.4784 22.9282V18.7198L10.6766 15.9576C10.4629 16.0517 10.2131 16.1048 9.96479 16.1048C9.01033 16.1048 8.2271 15.3286 8.2271 14.3742C8.2271 13.4197 8.99972 12.6436 9.95417 12.6436C10.9086 12.6436 11.6827 13.4197 11.6827 14.3742C11.6827 14.6119 11.6338 14.8383 11.5468 15.0442L14.539 17.9996C14.6592 18.1198 14.7526 18.2833 14.7526 18.4531V39.0917H15.6724V14.1449L13.264 11.7641C13.0065 11.883 12.7058 11.9495 12.4043 11.9495C11.2865 11.9495 10.3702 11.0403 10.3702 9.9224C10.3702 8.80451 11.2758 7.89533 12.3944 7.89533C13.5123 7.89533 14.4201 8.80451 14.4201 9.9224C14.4201 10.2719 14.3302 10.6016 14.1739 10.8889L16.7358 13.4268C16.8561 13.5471 16.9474 13.7098 16.9474 13.8796V39.0917H17.7964V13.8796C17.7964 13.7098 17.8728 13.5471 17.9924 13.4268L20.5438 10.8797C20.3902 10.5946 20.3053 10.2684 20.3053 9.9224C20.3053 8.80451 21.2159 7.89533 22.3338 7.89533C23.4517 7.89533 24.3616 8.80451 24.3616 9.9224C24.3616 11.0403 23.4524 11.9495 22.3345 11.9495C22.0289 11.9495 21.7268 11.8808 21.4671 11.7591L19.0679 14.1449V39.0917H19.9877V18.4531C19.9877 18.2826 20.0655 18.1198 20.1858 17.9996L23.168 15.0343C23.0838 14.8305 23.0392 14.6077 23.0392 14.3742C23.0392 13.4197 23.8168 12.6436 24.7705 12.6436C25.725 12.6436 26.5019 13.4197 26.5019 14.3742C26.5019 15.3286 25.7257 16.1048 24.772 16.1048C24.5201 16.1048 24.3036 16.0503 24.0871 15.9534L21.332 18.7191V22.9417L25.5665 18.6951C25.5531 18.6186 25.534 18.5401 25.534 18.4602C25.534 17.7307 26.1219 17.1378 26.8507 17.1378C27.5802 17.1378 28.1702 17.7314 28.1702 18.4602C28.1702 19.1896 27.5752 19.7825 26.8464 19.7825C26.6752 19.7825 26.533 19.7493 26.3823 19.6898L21.332 24.7508V39.0917H22.9253C23.9357 39.0917 24.8696 38.3389 24.8696 37.3279V33.1273C30.7421 30.3438 34.7885 24.3447 34.7885 17.3918C34.7885 7.78708 26.9618 7.62939e-06 17.3563 7.62939e-06ZM8.03889 24.0709C8.03889 23.3414 8.62119 22.7485 9.35065 22.7485C10.0801 22.7485 10.7013 23.3421 10.7013 24.0709C10.7013 24.5824 10.436 25.0267 10.0115 25.2468V28.2616C10.436 28.4816 10.6964 28.9259 10.6964 29.4375C10.6964 30.1669 10.0865 30.7599 9.35702 30.7599C8.62755 30.7599 8.04738 30.1662 8.04738 29.4375C8.04738 28.8594 8.38416 28.3677 8.95019 28.188V25.3204C8.38416 25.1407 8.03889 24.6489 8.03889 24.0709ZM7.36957 27.4861C7.36957 28.2156 6.77595 28.8085 6.04719 28.8085C5.31773 28.8085 4.72482 28.2149 4.72482 27.4861C4.72482 27.3651 4.7411 27.2484 4.77223 27.1366L2.92416 25.2687C2.82652 25.1718 2.79539 25.0395 2.79539 24.9015V17.4958C2.44162 17.2736 2.06522 16.8328 2.06522 16.3255C2.06522 15.5961 2.64681 15.0032 3.37627 15.0032C4.10573 15.0032 4.69298 15.5968 4.69298 16.3255C4.69298 16.9078 4.35195 17.4024 3.78593 17.5786V24.6864L5.42245 26.3201C5.60853 26.2196 5.82149 26.1623 6.04719 26.1623C6.77595 26.1637 7.36957 26.7567 7.36957 27.4861ZM26.6993 29.4375C26.6993 30.1669 26.1085 30.7599 25.3797 30.7599C24.6503 30.7599 24.0404 30.1662 24.0404 29.4375C24.0404 28.9316 24.3743 28.4908 24.7281 28.2687V25.239C24.3743 25.0168 24.0418 24.576 24.0418 24.0702C24.0418 23.3407 24.6439 22.7478 25.3734 22.7478C26.1028 22.7478 26.695 23.3414 26.695 24.0702C26.695 24.6532 26.3561 25.1491 25.7901 25.3246V28.183C26.3554 28.3592 26.6993 28.8545 26.6993 29.4375ZM31.9449 17.5029V24.9022C31.9449 25.0402 31.8982 25.1718 31.8006 25.2694L29.944 27.1267C29.9766 27.2413 29.9964 27.3623 29.9964 27.4868C29.9964 28.2163 29.4042 28.8092 28.6747 28.8092C27.9452 28.8092 27.3523 28.2156 27.3523 27.4868C27.3523 26.7574 27.9459 26.1645 28.6754 26.1645C28.8976 26.1645 29.1226 26.2196 29.3072 26.3173L30.9544 24.6871V17.5743C30.3883 17.3939 30.0516 16.9022 30.0516 16.3255C30.0516 15.5961 30.6374 15.0032 31.3661 15.0032C32.0956 15.0032 32.6772 15.5968 32.6772 16.3255C32.6772 16.8385 32.4402 17.2835 31.9449 17.5029Z" fill="url(#paint8_radial_10_134)"/>
<path d="M22.3331 11.0346C22.9466 11.0346 23.4454 10.5358 23.4454 9.92241C23.4454 9.30898 22.9466 8.80946 22.3331 8.80946C21.7197 8.80946 21.2209 9.30827 21.2209 9.92241C21.2209 10.1778 21.3086 10.4127 21.4537 10.6009L21.6546 10.8019C21.8421 10.9476 22.077 11.0346 22.3331 11.0346Z" fill="url(#paint9_radial_10_134)"/>
<path d="M11.2766 9.92241C11.2766 10.5358 11.7754 11.0346 12.3888 11.0346C12.6194 11.0346 12.8338 10.9639 13.0114 10.8436L13.31 10.545C13.4303 10.3674 13.501 10.1531 13.501 9.92241C13.501 9.30898 13.0022 8.80946 12.3881 8.80946C11.7761 8.80946 11.2766 9.30898 11.2766 9.92241Z" fill="url(#paint10_radial_10_134)"/>
<path d="M7.87618 19.1726C8.26967 19.1726 8.58866 18.8537 8.58866 18.4602C8.58866 18.0667 8.26967 17.7477 7.87618 17.7477C7.48269 17.7477 7.1637 18.0667 7.1637 18.4602C7.1637 18.8537 7.48269 19.1726 7.87618 19.1726Z" fill="url(#paint11_radial_10_134)"/>
<path d="M8.9516 14.3742C8.9516 14.9246 9.39946 15.3725 9.94992 15.3725C10.5004 15.3725 10.9482 14.9246 10.9482 14.3742C10.9482 13.8237 10.5004 13.3759 9.94992 13.3759C9.39946 13.3759 8.9516 13.8237 8.9516 14.3742Z" fill="url(#paint12_radial_10_134)"/>
<path d="M27.5582 18.4602C27.5582 18.0675 27.2384 17.7477 26.8457 17.7477C26.453 17.7477 26.1332 18.0675 26.1332 18.4602C26.1332 18.8528 26.453 19.1726 26.8457 19.1726C27.2391 19.1726 27.5582 18.8535 27.5582 18.4602Z" fill="url(#paint13_radial_10_134)"/>
<path d="M24.7719 15.3725C25.3224 15.3725 25.7703 14.9246 25.7703 14.3742C25.7703 13.8237 25.3224 13.3759 24.7719 13.3759C24.2215 13.3759 23.7736 13.8237 23.7736 14.3742C23.7736 14.9246 24.2215 15.3725 24.7719 15.3725Z" fill="url(#paint14_radial_10_134)"/>
<path d="M23.0592 47.0924H11.7299C10.9919 47.0924 10.3942 46.4839 10.3942 45.7325V45.4524C10.3942 44.701 10.9919 44.0924 11.7299 44.0924H23.0585C23.7965 44.0924 24.3942 44.701 24.3942 45.4524V45.7325C24.3949 46.4832 23.7965 47.0924 23.0592 47.0924Z" fill="url(#paint15_radial_10_134)"/>
<path d="M23.0592 43.0924H11.7299C10.9919 43.0924 10.3942 42.4839 10.3942 41.7325V41.4524C10.3942 40.701 10.9919 40.0924 11.7299 40.0924H23.0585C23.7965 40.0924 24.3942 40.701 24.3942 41.4524V41.7325C24.3949 42.4839 23.7965 43.0924 23.0592 43.0924Z" fill="url(#paint16_radial_10_134)"/>
<path d="M20.0589 51.0924H13.7295C12.9918 51.0924 12.3942 50.4839 12.3942 49.7325V49.4524C12.3942 48.701 12.9918 48.0924 13.7295 48.0924H20.0589C20.7967 48.0924 21.3942 48.701 21.3942 49.4524V49.7325C21.3942 50.4839 20.7967 51.0924 20.0589 51.0924Z" fill="url(#paint17_radial_10_134)"/>
<path d="M4.46574 53.0724V60.0924H2.75574V53.0724H4.46574ZM11.985 60.0924H10.275L7.41496 55.7624V60.0924H5.70496V53.0724H7.41496L10.275 57.4224V53.0724H11.985V60.0924ZM12.9345 56.5724C12.9345 55.8791 13.0845 55.2624 13.3845 54.7224C13.6845 54.1758 14.1012 53.7524 14.6345 53.4524C15.1745 53.1458 15.7845 52.9924 16.4645 52.9924C17.2978 52.9924 18.0112 53.2124 18.6045 53.6524C19.1978 54.0924 19.5945 54.6924 19.7945 55.4524H17.9145C17.7745 55.1591 17.5745 54.9358 17.3145 54.7824C17.0612 54.6291 16.7712 54.5524 16.4445 54.5524C15.9178 54.5524 15.4912 54.7358 15.1645 55.1024C14.8378 55.4691 14.6745 55.9591 14.6745 56.5724C14.6745 57.1858 14.8378 57.6758 15.1645 58.0424C15.4912 58.4091 15.9178 58.5924 16.4445 58.5924C16.7712 58.5924 17.0612 58.5158 17.3145 58.3624C17.5745 58.2091 17.7745 57.9858 17.9145 57.6924H19.7945C19.5945 58.4524 19.1978 59.0524 18.6045 59.4924C18.0112 59.9258 17.2978 60.1424 16.4645 60.1424C15.7845 60.1424 15.1745 59.9924 14.6345 59.6924C14.1012 59.3858 13.6845 58.9624 13.3845 58.4224C13.0845 57.8824 12.9345 57.2658 12.9345 56.5724Z" fill="black"/>
<path d="M22.5217 53.0724V57.2724C22.5217 57.6924 22.625 58.0158 22.8317 58.2424C23.0383 58.4691 23.3417 58.5824 23.7417 58.5824C24.1417 58.5824 24.4483 58.4691 24.6617 58.2424C24.875 58.0158 24.9817 57.6924 24.9817 57.2724V53.0724H26.6917V57.2624C26.6917 57.8891 26.5583 58.4191 26.2917 58.8524C26.025 59.2858 25.665 59.6124 25.2117 59.8324C24.765 60.0524 24.265 60.1624 23.7117 60.1624C23.1583 60.1624 22.6617 60.0558 22.2217 59.8424C21.7883 59.6224 21.445 59.2958 21.1917 58.8624C20.9383 58.4224 20.8117 57.8891 20.8117 57.2624V53.0724H22.5217ZM32.1425 56.4924C32.5491 56.5791 32.8758 56.7824 33.1225 57.1024C33.3691 57.4158 33.4925 57.7758 33.4925 58.1824C33.4925 58.7691 33.2858 59.2358 32.8725 59.5824C32.4658 59.9224 31.8958 60.0924 31.1625 60.0924H27.8925V53.0724H31.0525C31.7658 53.0724 32.3225 53.2358 32.7225 53.5624C33.1291 53.8891 33.3325 54.3324 33.3325 54.8924C33.3325 55.3058 33.2225 55.6491 33.0025 55.9224C32.7891 56.1958 32.5025 56.3858 32.1425 56.4924ZM29.6025 55.9124H30.7225C31.0025 55.9124 31.2158 55.8524 31.3625 55.7324C31.5158 55.6058 31.5925 55.4224 31.5925 55.1824C31.5925 54.9424 31.5158 54.7591 31.3625 54.6324C31.2158 54.5058 31.0025 54.4424 30.7225 54.4424H29.6025V55.9124ZM30.8625 58.7124C31.1491 58.7124 31.3691 58.6491 31.5225 58.5224C31.6825 58.3891 31.7625 58.1991 31.7625 57.9524C31.7625 57.7058 31.6791 57.5124 31.5125 57.3724C31.3525 57.2324 31.1291 57.1624 30.8425 57.1624H29.6025V58.7124H30.8625Z" fill="#010101"/>
<defs>
<radialGradient id="paint0_radial_10_134" cx="0" cy="0" r="1" gradientUnits="userSpaceOnUse" gradientTransform="translate(31.3588 16.3258) scale(0.712686 0.712687)">
<stop stop-color="#FFF33E"/>
<stop offset="0.2153" stop-color="#FFED3B"/>
<stop offset="0.5029" stop-color="#FEDC31"/>
<stop offset="0.8298" stop-color="#FCC121"/>
<stop offset="1" stop-color="#FCAF17"/>
</radialGradient>
<radialGradient id="paint1_radial_10_134" cx="0" cy="0" r="1" gradientUnits="userSpaceOnUse" gradientTransform="translate(25.3822 29.4378) scale(0.712681)">
<stop stop-color="#FFF33E"/>
<stop offset="0.2153" stop-color="#FFED3B"/>
<stop offset="0.5029" stop-color="#FEDC31"/>
<stop offset="0.8298" stop-color="#FCC121"/>
<stop offset="1" stop-color="#FCAF17"/>
</radialGradient>
<radialGradient id="paint2_radial_10_134" cx="0" cy="0" r="1" gradientUnits="userSpaceOnUse" gradientTransform="translate(28.6755 27.4862) scale(0.712688 0.712686)">
<stop stop-color="#FFF33E"/>
<stop offset="0.2153" stop-color="#FFED3B"/>
<stop offset="0.5029" stop-color="#FEDC31"/>
<stop offset="0.8298" stop-color="#FCC121"/>
<stop offset="1" stop-color="#FCAF17"/>
</radialGradient>
<radialGradient id="paint3_radial_10_134" cx="0" cy="0" r="1" gradientUnits="userSpaceOnUse" gradientTransform="translate(25.3822 24.071) scale(0.712681)">
<stop stop-color="#FFF33E"/>
<stop offset="0.2153" stop-color="#FFED3B"/>
<stop offset="0.5029" stop-color="#FEDC31"/>
<stop offset="0.8298" stop-color="#FCC121"/>
<stop offset="1" stop-color="#FCAF17"/>
</radialGradient>
<radialGradient id="paint4_radial_10_134" cx="0" cy="0" r="1" gradientUnits="userSpaceOnUse" gradientTransform="translate(9.34011 24.071) scale(0.712688)">
<stop stop-color="#FFF33E"/>
<stop offset="0.2153" stop-color="#FFED3B"/>
<stop offset="0.5029" stop-color="#FEDC31"/>
<stop offset="0.8298" stop-color="#FCC121"/>
<stop offset="1" stop-color="#FCAF17"/>
</radialGradient>
<radialGradient id="paint5_radial_10_134" cx="0" cy="0" r="1" gradientUnits="userSpaceOnUse" gradientTransform="translate(9.34011 29.4378) scale(0.712688)">
<stop stop-color="#FFF33E"/>
<stop offset="0.2153" stop-color="#FFED3B"/>
<stop offset="0.5029" stop-color="#FEDC31"/>
<stop offset="0.8298" stop-color="#FCC121"/>
<stop offset="1" stop-color="#FCAF17"/>
</radialGradient>
<radialGradient id="paint6_radial_10_134" cx="0" cy="0" r="1" gradientUnits="userSpaceOnUse" gradientTransform="translate(6.04686 27.4862) scale(0.712688 0.712686)">
<stop stop-color="#FFF33E"/>
<stop offset="0.2153" stop-color="#FFED3B"/>
<stop offset="0.5029" stop-color="#FEDC31"/>
<stop offset="0.8298" stop-color="#FCC121"/>
<stop offset="1" stop-color="#FCAF17"/>
</radialGradient>
<radialGradient id="paint7_radial_10_134" cx="0" cy="0" r="1" gradientUnits="userSpaceOnUse" gradientTransform="translate(3.36349 16.3258) scale(0.712687)">
<stop stop-color="#FFF33E"/>
<stop offset="0.2153" stop-color="#FFED3B"/>
<stop offset="0.5029" stop-color="#FEDC31"/>
<stop offset="0.8298" stop-color="#FCC121"/>
<stop offset="1" stop-color="#FCAF17"/>
</radialGradient>
<radialGradient id="paint8_radial_10_134" cx="0" cy="0" r="1" gradientUnits="userSpaceOnUse" gradientTransform="translate(17.394 19.546) scale(18.5014)">
<stop stop-color="#FFF33E"/>
<stop offset="1" stop-color="#FCAF17"/>
</radialGradient>
<radialGradient id="paint9_radial_10_134" cx="0" cy="0" r="1" gradientUnits="userSpaceOnUse" gradientTransform="translate(22.3329 9.92222) scale(1.11258)">
<stop stop-color="#FFF33E"/>
<stop offset="0.2153" stop-color="#FFED3B"/>
<stop offset="0.5029" stop-color="#FEDC31"/>
<stop offset="0.8298" stop-color="#FCC121"/>
<stop offset="1" stop-color="#FCAF17"/>
</radialGradient>
<radialGradient id="paint10_radial_10_134" cx="0" cy="0" r="1" gradientUnits="userSpaceOnUse" gradientTransform="translate(12.3894 9.92222) scale(1.11259)">
<stop stop-color="#FFF33E"/>
<stop offset="0.2153" stop-color="#FFED3B"/>
<stop offset="0.5029" stop-color="#FEDC31"/>
<stop offset="0.8298" stop-color="#FCC121"/>
<stop offset="1" stop-color="#FCAF17"/>
</radialGradient>
<radialGradient id="paint11_radial_10_134" cx="0" cy="0" r="1" gradientUnits="userSpaceOnUse" gradientTransform="translate(7.87646 18.4603) scale(0.712688)">
<stop stop-color="#FFF33E"/>
<stop offset="0.2153" stop-color="#FFED3B"/>
<stop offset="0.5029" stop-color="#FEDC31"/>
<stop offset="0.8298" stop-color="#FCC121"/>
<stop offset="1" stop-color="#FCAF17"/>
</radialGradient>
<radialGradient id="paint12_radial_10_134" cx="0" cy="0" r="1" gradientUnits="userSpaceOnUse" gradientTransform="translate(9.94996 14.3742) scale(0.998592 0.998593)">
<stop stop-color="#FFF33E"/>
<stop offset="0.2153" stop-color="#FFED3B"/>
<stop offset="0.5029" stop-color="#FEDC31"/>
<stop offset="0.8298" stop-color="#FCC121"/>
<stop offset="1" stop-color="#FCAF17"/>
</radialGradient>
<radialGradient id="paint13_radial_10_134" cx="0" cy="0" r="1" gradientUnits="userSpaceOnUse" gradientTransform="translate(26.8458 18.4603) scale(0.712688)">
<stop stop-color="#FFF33E"/>
<stop offset="0.2153" stop-color="#FFED3B"/>
<stop offset="0.5029" stop-color="#FEDC31"/>
<stop offset="0.8298" stop-color="#FCC121"/>
<stop offset="1" stop-color="#FCAF17"/>
</radialGradient>
<radialGradient id="paint14_radial_10_134" cx="0" cy="0" r="1" gradientUnits="userSpaceOnUse" gradientTransform="translate(24.7723 14.3742) scale(0.998592 0.998593)">
<stop stop-color="#FFF33E"/>
<stop offset="0.2153" stop-color="#FFED3B"/>
<stop offset="0.5029" stop-color="#FEDC31"/>
<stop offset="0.8298" stop-color="#FCC121"/>
<stop offset="1" stop-color="#FCAF17"/>
</radialGradient>
<radialGradient id="paint15_radial_10_134" cx="0" cy="0" r="1" gradientUnits="userSpaceOnUse" gradientTransform="translate(17.3946 45.5922) scale(5.05825 5.15005)">
<stop stop-color="#00B3B5"/>
<stop offset="1" stop-color="#00AAB5"/>
</radialGradient>
<radialGradient id="paint16_radial_10_134" cx="0" cy="0" r="1" gradientUnits="userSpaceOnUse" gradientTransform="translate(17.3946 41.5927) scale(5.05825 5.15005)">
<stop stop-color="#00B3B5"/>
<stop offset="1" stop-color="#00AAB5"/>
</radialGradient>
<radialGradient id="paint17_radial_10_134" cx="0" cy="0" r="1" gradientUnits="userSpaceOnUse" gradientTransform="translate(16.8943 49.5927) scale(3.34813 3.40985)">
<stop stop-color="#00B3B5"/>
<stop offset="1" stop-color="#00AAB5"/>
</radialGradient>
</defs>
</svg>
